# xmcd CD database file
#
# Track frame offsets:
#	150
#	39255
#	83899
#	116171
#	150556
#	190681
#	224489
#	289417
#
# Disc length: 4585 seconds
#
# Revision: 0
# Processed by: cddbd v1.5.2PL0 Copyright (c) Steve Scherf et al.
# Submitted via: CDex 1.70beta2
#
DISCID=6e11e708
DTITLE=Corea, Clarke and White - Forever [CD1]
DYEAR=2010
DGENRE=Jazz
TTITLE0=On Green Dolphin Street
TTITLE1=Waltz For Debby
TTITLE2=Bud Powell
TTITLE3=La Cancion De Sofia
TTITLE4=Windows 
TTITLE5=Hackensack
TTITLE6=No Mystery
TTITLE7=Senor Mouse
EXTD=YEAR: 2010
EXTT0=
EXTT1=
EXTT2=
EXTT3=
EXTT4=
EXTT5=
EXTT6=
EXTT7=
PLAYORDER=
